<svg width="16" height="16" viewBox="0 0 16 16" fill="none" xmlns="http://www.w3.org/2000/svg">
<path d="M3.58143 16H0.264285V5.31762H3.58143V16ZM1.92108 3.86044C0.860357 3.86044 0 2.98185 0 1.92111C7.59214e-09 1.4116 0.202398 0.92296 0.562668 0.562682C0.922942 0.202403 1.41157 0 1.92108 0C2.43057 0 2.9192 0.202403 3.27948 0.562682C3.63974 0.92296 3.84214 1.4116 3.84214 1.92111C3.84214 2.98185 2.98143 3.86044 1.92108 3.86044ZM15.9964 16H12.6864V10.7999C12.6864 9.56053 12.6614 7.97125 10.9618 7.97125C9.23716 7.97125 8.97289 9.31769 8.97289 10.7106V16H5.65929V5.31762H8.84071V6.77479H8.88715C9.33004 5.93549 10.4118 5.04975 12.0257 5.04975C15.3828 5.04975 16 7.26052 16 10.132V16H15.9964Z" fill="white"/>
</svg>
