<svg width="112" height="22" viewBox="0 0 112 22" fill="none" xmlns="http://www.w3.org/2000/svg">
<path d="M0 15.0201C0 17.6118 1.71173 22 11.8345 22C14.2545 22 22.7541 21.4404 22.7541 15.1673C22.7541 11.3976 19.2717 10.249 15.4941 9.54217L8.7357 8.30522C7.58472 8.09906 5.81397 7.74565 5.81397 6.12584C5.81397 4.24096 8.44058 3.62249 10.6245 3.62249C15.6711 3.62249 16.1433 5.83133 16.2909 6.77376H21.8393C21.8097 4.18206 19.5373 0 11.0672 0C2.09539 0 0.442688 4.09371 0.442688 6.42035C0.413175 11.0442 4.722 11.7805 9.2079 12.5756L12.1592 13.1058C15.0809 13.6359 17.1763 14.0776 17.1763 15.6975C17.1763 17.9063 14.1365 18.407 11.3918 18.407C6.34519 18.407 5.57787 16.1981 5.51884 15.0201H0Z" fill="white"/>
<path d="M38.6024 13.7242C38.6024 15.6975 37.835 18.4364 33.6738 18.4364C29.5125 18.4364 28.7452 15.6975 28.7452 13.7242C28.7452 11.751 29.5125 9.01205 33.6738 9.01205C37.835 8.9826 38.6024 11.7216 38.6024 13.7242ZM44.1507 13.7242C44.1507 8.12851 39.1926 5.56627 33.6738 5.56627C28.1549 5.56627 23.1968 8.12851 23.1968 13.7242C23.1968 19.3199 28.1549 21.8822 33.6738 21.8822C39.1926 21.8527 44.1507 19.2905 44.1507 13.7242Z" fill="white"/>
<path d="M51.883 8.86479H55.395V5.94913H51.883V5.33066C51.883 4.06426 51.9125 3.62249 53.7718 3.62249H55.2769V0.353414C54.8047 0.323963 54.0669 0.294511 52.5028 0.294511C48.8137 0.294511 46.4822 1.50201 46.4822 4.71218V5.94913H43.5014V8.86479H46.4822V21.4404H51.883V8.86479Z" fill="white"/>
<path d="M62.2419 1.76707H56.8411V5.94913H54.0669V8.86479H56.8411V18.2597C56.8411 20.2624 57.697 21.6171 62.3599 21.6171H63.0682C63.9241 21.6171 64.7505 21.5877 65.6063 21.5582V18.4953C65.2227 18.5248 64.839 18.5542 64.4848 18.5542C62.3009 18.5542 62.2419 18.2008 62.2419 17.2878V8.86479H65.5768V5.94913H62.2124V1.76707H62.2419Z" fill="white"/>
<path d="M90.5739 7.39224C90.2788 4.29987 86.9144 0 78.6213 0C71.4793 0 65.9015 3.74029 65.9015 11.0442C65.9015 18.2597 71.1842 22 78.5623 22C85.4978 22 89.4229 18.8193 90.5739 14.2838H84.7895C84.0812 16.8461 81.8677 18.2008 78.6509 18.2008C73.7518 18.2008 71.804 14.8139 71.804 11.0736C71.804 5.15395 75.8767 3.76975 78.6509 3.76975C83.4319 3.76975 84.3173 6.12584 84.7895 7.39224H90.5739Z" fill="white"/>
<path d="M106.452 13.7242C106.452 15.6975 105.684 18.4364 101.523 18.4364C97.3618 18.4364 96.5945 15.6975 96.5945 13.7242C96.5945 11.751 97.3618 9.01205 101.523 9.01205C105.655 8.9826 106.452 11.7216 106.452 13.7242ZM112 13.7242C112 8.12851 107.012 5.56627 101.523 5.56627C96.0042 5.56627 91.0461 8.12851 91.0461 13.7242C91.0461 19.3199 96.0042 21.8822 101.523 21.8822C107.012 21.8527 112 19.2905 112 13.7242Z" fill="white"/>
</svg>
